# xmcd CD database file
#
# Track frame offsets:
#	150
#	21364
#	42395
#	62677
#	84170
#	103304
#	119528
#	138853
#	159143
#	177847
#	196991
#
# Disc length: 2872 seconds
#
# Revision: 1
# Processed by: cddbd v1.5.1PL0 Copyright (c) Steve Scherf et al.
# Submitted via: CDex 1.51
#
DISCID=8c0b360b
DTITLE=Rubby Perez - Volando Alto
DYEAR=2001
DGENRE=Merengue
TTITLE0=Porque tu no estas
TTITLE1=Vuelve
TTITLE2=Y no voy a llorar
TTITLE3=Mirando las estrellas
TTITLE4=sobrevive
TTITLE5=si nos dejan
TTITLE6=no vuelvo a creer
TTITLE7=no cabe olvido
TTITLE8=lleno de amor
TTITLE9=si fuera por mi
TTITLE10=cibao adentro
EXTD=YEAR: 2001
EXTT0=
EXTT1=
EXTT2=
EXTT3=
EXTT4=
EXTT5=
EXTT6=
EXTT7=
EXTT8=
EXTT9=
EXTT10=
PLAYORDER=
